# xmcd
#
# Track frame offsets: 
#        150
#        17451
#        34220
#        48605
#        66069
#        84831
#        101581
#        119453
#        136459
#        152178
#        176717
#        196602
#        213653
#        229982
#        246417
#        263489
#        279888
#        294598
#
# Disc length: 4135 seconds
#
# Revision: 0
# Processed by: cddbd v1.4PL0 Copyright (c) Steve Scherf et al.
# Submitted via: ExactAudioCopy v0.95a3
#
DISCID=00102512
DTITLE=卢巧音 - 未知标题
DYEAR=1900
DGENRE=
TTITLE0=代你发梦
TTITLE1=周日床上
TTITLE2=夜燃烧
TTITLE3=日有所思
TTITLE4=我想过
TTITLE5=佛洛伊德爱上林夕
TTITLE6=事后
TTITLE7=女魔术师的催眠疗法
TTITLE8=世界尽头的冷酷异境
TTITLE9=说梦
TTITLE10=色与情
TTITLE11=暖色
TTITLE12=红红是
TTITLE13=深蓝
TTITLE14=白与黑
TTITLE15=白光
TTITLE16=紫醉金迷
TTITLE17=绿化作用
EXTD=
EXTT0=
EXTT1=
EXTT2=
EXTT3=
EXTT4=
EXTT5=
EXTT6=
EXTT7=
EXTT8=
EXTT9=
EXTT10=
EXTT11=
EXTT12=
EXTT13=
EXTT14=
EXTT15=
EXTT16=
EXTT17=
PLAYORDER=
